<?xml version="1.0" encoding="UTF-8" standalone="no"?><svg xmlns="http://www.w3.org/2000/svg" xmlns:xlink="http://www.w3.org/1999/xlink" contentScriptType="application/ecmascript" contentStyleType="text/css" height="531px" preserveAspectRatio="none" style="width:346px;height:531px;background:#FEFEFE;" version="1.1" viewBox="0 0 346 531" width="346px" zoomAndPan="magnify"><defs><filter height="300%" id="futa30jgm529u" width="300%" x="-1" y="-1"><feGaussianBlur result="blurOut" stdDeviation="2.0"/><feColorMatrix in="blurOut" result="blurOut2" type="matrix" values="0 0 0 0 0 0 0 0 0 0 0 0 0 0 0 0 0 0 .4 0"/><feOffset dx="4.0" dy="4.0" in="blurOut2" result="blurOut3"/><feBlend in="SourceGraphic" in2="blurOut3" mode="normal"/></filter></defs><g><text fill="#000000" font-family="sans-serif" font-size="18" lengthAdjust="spacingAndGlyphs" textLength="332" x="2" y="19.2419">Життєвий цикл довідки (hr.certificate)</text><ellipse cx="153.07" cy="42.5158" fill="#000000" filter="url(#futa30jgm529u)" rx="10" ry="10" style="stroke: none; stroke-width: 1.0;"/><rect fill="#ADD8E6" filter="url(#futa30jgm529u)" height="50" rx="12.5" ry="12.5" style="stroke: #A80036; stroke-width: 1.5;" width="86" x="110.07" y="131.5158"/><line style="stroke: #A80036; stroke-width: 1.5;" x1="110.07" x2="196.07" y1="160.5838" y2="160.5838"/><text fill="#000000" font-family="sans-serif" font-size="14" lengthAdjust="spacingAndGlyphs" textLength="66" x="120.07" y="151.4818">Чернетка</text><rect fill="#FFFFE0" filter="url(#futa30jgm529u)" height="50" rx="12.5" ry="12.5" style="stroke: #A80036; stroke-width: 1.5;" width="112" x="40.07" y="260.5158"/><line style="stroke: #A80036; stroke-width: 1.5;" x1="40.07" x2="152.07" y1="289.5838" y2="289.5838"/><text fill="#000000" font-family="sans-serif" font-size="14" lengthAdjust="spacingAndGlyphs" textLength="92" x="50.07" y="280.4818">Затверджено</text><rect fill="#90EE90" filter="url(#futa30jgm529u)" height="50" rx="12.5" ry="12.5" style="stroke: #A80036; stroke-width: 1.5;" width="71" x="36.57" y="389.5158"/><line style="stroke: #A80036; stroke-width: 1.5;" x1="36.57" x2="107.57" y1="418.5838" y2="418.5838"/><text fill="#000000" font-family="sans-serif" font-size="14" lengthAdjust="spacingAndGlyphs" textLength="51" x="46.57" y="409.4818">Видано</text><rect fill="#F08080" filter="url(#futa30jgm529u)" height="50" rx="12.5" ry="12.5" style="stroke: #A80036; stroke-width: 1.5;" width="92" x="172.07" y="389.5158"/><line style="stroke: #A80036; stroke-width: 1.5;" x1="172.07" x2="264.07" y1="418.5838" y2="418.5838"/><text fill="#000000" font-family="sans-serif" font-size="14" lengthAdjust="spacingAndGlyphs" textLength="72" x="182.07" y="409.4818">Скасовано</text><ellipse cx="72.07" cy="510.5158" fill="none" filter="url(#futa30jgm529u)" rx="10" ry="10" style="stroke: #000000; stroke-width: 1.0;"/><ellipse cx="72.57" cy="511.0158" fill="#000000" rx="6" ry="6" style="stroke: none; stroke-width: 1.0;"/><!--MD5=[98967d72ce6cf1fee1a27daeddde0c85]
link *start to draft--><path d="M153.07,52.6858 C153.07,68.5858 153.07,101.9158 153.07,126.3358 " fill="none" id="*start-&gt;draft" style="stroke: #A80036; stroke-width: 1.0;"/><polygon fill="#A80036" points="153.07,131.4058,157.07,122.4058,153.07,126.4058,149.07,122.4058,153.07,131.4058" style="stroke: #A80036; stroke-width: 1.0;"/><text fill="#000000" font-family="sans-serif" font-size="13" lengthAdjust="spacingAndGlyphs" textLength="67" x="154.07" y="97.4129">Створення</text><!--MD5=[807325828fe198034db3f94db6c9d72d]
link draft to approved--><path d="M109.92,165.1458 C83.42,172.3058 51.5,185.9258 35.07,211.5158 C24.79,227.5258 36.12,243.9158 51.7,257.0958 " fill="none" id="draft-&gt;approved" style="stroke: #A80036; stroke-width: 1.0;"/><polygon fill="#A80036" points="55.74,260.3758,51.2773,251.5961,51.8594,257.2229,46.2326,257.805,55.74,260.3758" style="stroke: #A80036; stroke-width: 1.0;"/><text fill="#000000" font-family="sans-serif" font-size="13" lengthAdjust="spacingAndGlyphs" textLength="73" x="36.07" y="226.4129">Затвердити</text><!--MD5=[c50b0252847b98ec9a7debba0c66cf79]
link approved to draft--><path d="M106.89,260.4158 C116.34,239.3458 130.09,208.7058 140.13,186.3458 " fill="none" id="approved-&gt;draft" style="stroke: #A80036; stroke-width: 1.0;"/><polygon fill="#A80036" points="142.22,181.7058,134.8885,188.2822,140.1747,186.2684,142.1885,191.5547,142.22,181.7058" style="stroke: #A80036; stroke-width: 1.0;"/><text fill="#000000" font-family="sans-serif" font-size="13" lengthAdjust="spacingAndGlyphs" textLength="69" x="129.07" y="226.4129">Повернути</text><!--MD5=[2a623475fbb79465344e211a85f3f8de]
link draft to cancelled--><path d="M183.9,181.6158 C192.76,190.1158 201.52,200.3558 207.07,211.5158 C234.92,267.4458 229.38,343.1858 223.4,384.1958 " fill="none" id="draft-&gt;cancelled" style="stroke: #A80036; stroke-width: 1.0;"/><polygon fill="#A80036" points="222.64,389.2658,227.9566,380.9753,223.3971,384.3235,220.0488,379.764,222.64,389.2658" style="stroke: #A80036; stroke-width: 1.0;"/><text fill="#000000" font-family="sans-serif" font-size="13" lengthAdjust="spacingAndGlyphs" textLength="63" x="229.07" y="290.9129">Скасувати</text><!--MD5=[74d9ea4f199b0cdd9e90b08b843c53e0]
link approved to issued--><path d="M81.04,310.6058 C76.22,319.6358 71.5,330.2158 69.07,340.5158 C65.75,354.5758 65.98,370.5758 67.26,383.9958 " fill="none" id="approved-&gt;issued" style="stroke: #A80036; stroke-width: 1.0;"/><polygon fill="#A80036" points="67.81,389.2058,70.836,379.8334,67.2814,384.2339,62.8809,380.6792,67.81,389.2058" style="stroke: #A80036; stroke-width: 1.0;"/><text fill="#000000" font-family="sans-serif" font-size="13" lengthAdjust="spacingAndGlyphs" textLength="45" x="70.07" y="355.4129">Видати</text><!--MD5=[b117424aaec87ab417f29f2751bc09c3]
link approved to cancelled--><path d="M114.3,310.7058 C125.73,325.3458 141.09,344.1058 156.07,359.5158 C164.86,368.5658 174.97,377.7958 184.44,386.0158 " fill="none" id="approved-&gt;cancelled" style="stroke: #A80036; stroke-width: 1.0;"/><polygon fill="#A80036" points="188.46,389.4658,184.2464,380.5638,184.6698,386.2048,179.0288,386.6282,188.46,389.4658" style="stroke: #A80036; stroke-width: 1.0;"/><text fill="#000000" font-family="sans-serif" font-size="13" lengthAdjust="spacingAndGlyphs" textLength="63" x="157.07" y="355.4129">Скасувати</text><!--MD5=[d970beef3f80ddd626a302bd79a38057]
link issued to *end--><path d="M72.07,439.7258 C72.07,457.3558 72.07,480.6458 72.07,495.3558 " fill="none" id="issued-&gt;*end" style="stroke: #A80036; stroke-width: 1.0;"/><polygon fill="#A80036" points="72.07,500.3558,76.07,491.3558,72.07,495.3558,68.07,491.3558,72.07,500.3558" style="stroke: #A80036; stroke-width: 1.0;"/><!--MD5=[6dd580a5df285b862c0d849bf15fd329]
@startuml certificate_workflow
skinparam backgroundColor #FEFEFE

title Життєвий цикл довідки (hr.certificate)

[*] - -> draft : Створення

state "Чернетка" as draft #LightBlue
state "Затверджено" as approved #LightYellow
state "Видано" as issued #LightGreen
state "Скасовано" as cancelled #LightCoral

draft - -> approved : Затвердити
draft - -> cancelled : Скасувати
approved - -> issued : Видати
approved - -> draft : Повернути
approved - -> cancelled : Скасувати

issued - -> [*]

@enduml

PlantUML version 1.2020.02(Sun Mar 01 10:22:07 UTC 2020)
(GPL source distribution)
Java Runtime: OpenJDK Runtime Environment
JVM: OpenJDK 64-Bit Server VM
Java Version: 21.0.9+10-Ubuntu-124.04
Operating System: Linux
Default Encoding: UTF-8
Language: uk
Country: UA
--></g></svg>