<?xml version="1.0" encoding="UTF-8" standalone="no"?><svg xmlns="http://www.w3.org/2000/svg" xmlns:xlink="http://www.w3.org/1999/xlink" contentScriptType="application/ecmascript" contentStyleType="text/css" height="946px" preserveAspectRatio="none" style="width:548px;height:946px;background:#FEFEFE;" version="1.1" viewBox="0 0 548 946" width="548px" zoomAndPan="magnify"><defs><filter height="300%" id="f10dnbitm41nfs" width="300%" x="-1" y="-1"><feGaussianBlur result="blurOut" stdDeviation="2.0"/><feColorMatrix in="blurOut" result="blurOut2" type="matrix" values="0 0 0 0 0 0 0 0 0 0 0 0 0 0 0 0 0 0 .4 0"/><feOffset dx="4.0" dy="4.0" in="blurOut2" result="blurOut3"/><feBlend in="SourceGraphic" in2="blurOut3" mode="normal"/></filter></defs><g><text fill="#000000" font-family="sans-serif" font-size="18" lengthAdjust="spacingAndGlyphs" textLength="364" x="91" y="29.2419">Процес прийняття працівника на роботу</text><ellipse cx="116" cy="77.8057" fill="#000000" filter="url(#f10dnbitm41nfs)" rx="10" ry="10" style="stroke: none; stroke-width: 1.0;"/><rect fill="#FEFECE" filter="url(#f10dnbitm41nfs)" height="36.3441" rx="12.5" ry="12.5" style="stroke: #A80036; stroke-width: 1.5;" width="189" x="21.5" y="107.8057"/><text fill="#000000" font-family="sans-serif" font-size="12" lengthAdjust="spacingAndGlyphs" textLength="169" x="31.5" y="130.6337">Створити картку працівника</text><rect fill="#FEFECE" filter="url(#f10dnbitm41nfs)" height="36.3441" rx="12.5" ry="12.5" style="stroke: #A80036; stroke-width: 1.5;" width="166" x="33" y="164.1498"/><text fill="#000000" font-family="sans-serif" font-size="12" lengthAdjust="spacingAndGlyphs" textLength="146" x="43" y="186.9779">Заповнити особисті дані</text><rect fill="#FEFECE" filter="url(#f10dnbitm41nfs)" height="36.3441" rx="12.5" ry="12.5" style="stroke: #A80036; stroke-width: 1.5;" width="188" x="22" y="220.4939"/><text fill="#000000" font-family="sans-serif" font-size="12" lengthAdjust="spacingAndGlyphs" textLength="168" x="32" y="243.322">Заповнити військовий облік</text><rect fill="#FEFECE" filter="url(#f10dnbitm41nfs)" height="36.3441" rx="12.5" ry="12.5" style="stroke: #A80036; stroke-width: 1.5;" width="182" x="25" y="276.838"/><text fill="#000000" font-family="sans-serif" font-size="12" lengthAdjust="spacingAndGlyphs" textLength="162" x="35" y="299.6661">Створити трудовий договір</text><rect fill="#FEFECE" filter="url(#f10dnbitm41nfs)" height="36.3441" rx="12.5" ry="12.5" style="stroke: #A80036; stroke-width: 1.5;" width="173" x="29.5" y="405.8703"/><text fill="#000000" font-family="sans-serif" font-size="12" lengthAdjust="spacingAndGlyphs" textLength="153" x="39.5" y="428.6984">Натиснути "Новий наказ"</text><rect fill="#FEFECE" filter="url(#f10dnbitm41nfs)" height="36.3441" rx="12.5" ry="12.5" style="stroke: #A80036; stroke-width: 1.5;" width="174" x="29" y="462.2145"/><text fill="#000000" font-family="sans-serif" font-size="12" lengthAdjust="spacingAndGlyphs" textLength="154" x="39" y="485.0425">Вибрати тип "Прийняття"</text><rect fill="#FEFECE" filter="url(#f10dnbitm41nfs)" height="36.3441" rx="12.5" ry="12.5" style="stroke: #A80036; stroke-width: 1.5;" width="173" x="29.5" y="518.5586"/><text fill="#000000" font-family="sans-serif" font-size="12" lengthAdjust="spacingAndGlyphs" textLength="153" x="39.5" y="541.3867">Завантажити шаблон П-1</text><rect fill="#FEFECE" filter="url(#f10dnbitm41nfs)" height="36.3441" rx="12.5" ry="12.5" style="stroke: #A80036; stroke-width: 1.5;" width="192" x="20" y="631.2468"/><text fill="#000000" font-family="sans-serif" font-size="12" lengthAdjust="spacingAndGlyphs" textLength="172" x="30" y="654.0749">Перевірити та відредагувати</text><rect fill="#FEFECE" filter="url(#f10dnbitm41nfs)" height="36.3441" rx="12.5" ry="12.5" style="stroke: #A80036; stroke-width: 1.5;" width="127" x="52.5" y="687.5909"/><text fill="#000000" font-family="sans-serif" font-size="12" lengthAdjust="spacingAndGlyphs" textLength="107" x="62.5" y="710.419">Затвердити наказ</text><rect fill="#FEFECE" filter="url(#f10dnbitm41nfs)" height="36.3441" rx="12.5" ry="12.5" style="stroke: #A80036; stroke-width: 1.5;" width="137" x="47.5" y="800.2791"/><text fill="#000000" font-family="sans-serif" font-size="12" lengthAdjust="spacingAndGlyphs" textLength="117" x="57.5" y="823.1072">Роздрукувати наказ</text><rect fill="#FEFECE" filter="url(#f10dnbitm41nfs)" height="36.3441" rx="12.5" ry="12.5" style="stroke: #A80036; stroke-width: 1.5;" width="167" x="32.5" y="856.6233"/><text fill="#000000" font-family="sans-serif" font-size="12" lengthAdjust="spacingAndGlyphs" textLength="147" x="42.5" y="879.4513">Ознайомити працівника</text><ellipse cx="116" cy="923.9674" fill="#FFFFFF" filter="url(#f10dnbitm41nfs)" rx="11" ry="11" style="stroke: #000000; stroke-width: 1.0;"/><ellipse cx="116" cy="923.9674" fill="#000000" rx="6" ry="6" style="stroke: #7F7F7F; stroke-width: 1.0;"/><rect fill="#FEFECE" filter="url(#f10dnbitm41nfs)" height="52.6882" rx="12.5" ry="12.5" style="stroke: #A80036; stroke-width: 1.5;" width="175" x="223" y="333.1821"/><text fill="#000000" font-family="sans-serif" font-size="12" lengthAdjust="spacingAndGlyphs" textLength="155" x="233" y="356.0102">Автоматичне заповнення</text><text fill="#000000" font-family="sans-serif" font-size="12" lengthAdjust="spacingAndGlyphs" textLength="154" x="233" y="372.3543">полів з картки працівника</text><rect fill="#FEFECE" filter="url(#f10dnbitm41nfs)" height="36.3441" rx="12.5" ry="12.5" style="stroke: #A80036; stroke-width: 1.5;" width="177" x="222" y="574.9027"/><text fill="#000000" font-family="sans-serif" font-size="12" lengthAdjust="spacingAndGlyphs" textLength="157" x="232" y="597.7308">QWeb рендеринг шаблону</text><rect fill="#FEFECE" filter="url(#f10dnbitm41nfs)" height="36.3441" rx="12.5" ry="12.5" style="stroke: #A80036; stroke-width: 1.5;" width="118" x="409" y="743.935"/><text fill="#000000" font-family="sans-serif" font-size="12" lengthAdjust="spacingAndGlyphs" textLength="98" x="419" y="766.7631">Підписати наказ</text><line style="stroke: #A80036; stroke-width: 1.5;" x1="116" x2="116" y1="87.8057" y2="107.8057"/><polygon fill="#A80036" points="112,97.8057,116,107.8057,120,97.8057,116,101.8057" style="stroke: #A80036; stroke-width: 1.0;"/><line style="stroke: #A80036; stroke-width: 1.5;" x1="116" x2="116" y1="144.1498" y2="164.1498"/><polygon fill="#A80036" points="112,154.1498,116,164.1498,120,154.1498,116,158.1498" style="stroke: #A80036; stroke-width: 1.0;"/><line style="stroke: #A80036; stroke-width: 1.5;" x1="116" x2="116" y1="200.4939" y2="220.4939"/><polygon fill="#A80036" points="112,210.4939,116,220.4939,120,210.4939,116,214.4939" style="stroke: #A80036; stroke-width: 1.0;"/><line style="stroke: #A80036; stroke-width: 1.5;" x1="116" x2="116" y1="256.838" y2="276.838"/><polygon fill="#A80036" points="112,266.838,116,276.838,120,266.838,116,270.838" style="stroke: #A80036; stroke-width: 1.0;"/><line style="stroke: #A80036; stroke-width: 1.5;" x1="116" x2="116" y1="442.2145" y2="462.2145"/><polygon fill="#A80036" points="112,452.2145,116,462.2145,120,452.2145,116,456.2145" style="stroke: #A80036; stroke-width: 1.0;"/><line style="stroke: #A80036; stroke-width: 1.5;" x1="116" x2="116" y1="498.5586" y2="518.5586"/><polygon fill="#A80036" points="112,508.5586,116,518.5586,120,508.5586,116,512.5586" style="stroke: #A80036; stroke-width: 1.0;"/><line style="stroke: #A80036; stroke-width: 1.5;" x1="116" x2="116" y1="667.5909" y2="687.5909"/><polygon fill="#A80036" points="112,677.5909,116,687.5909,120,677.5909,116,681.5909" style="stroke: #A80036; stroke-width: 1.0;"/><line style="stroke: #A80036; stroke-width: 1.5;" x1="116" x2="116" y1="836.6233" y2="856.6233"/><polygon fill="#A80036" points="112,846.6233,116,856.6233,120,846.6233,116,850.6233" style="stroke: #A80036; stroke-width: 1.0;"/><line style="stroke: #A80036; stroke-width: 1.5;" x1="116" x2="116" y1="892.9674" y2="912.9674"/><polygon fill="#A80036" points="112,902.9674,116,912.9674,120,902.9674,116,906.9674" style="stroke: #A80036; stroke-width: 1.0;"/><line style="stroke: #A80036; stroke-width: 1.5;" x1="116" x2="116" y1="313.1821" y2="318.1821"/><line style="stroke: #A80036; stroke-width: 1.5;" x1="116" x2="310.5" y1="318.1821" y2="318.1821"/><line style="stroke: #A80036; stroke-width: 1.5;" x1="310.5" x2="310.5" y1="318.1821" y2="333.1821"/><polygon fill="#A80036" points="306.5,323.1821,310.5,333.1821,314.5,323.1821,310.5,327.1821" style="stroke: #A80036; stroke-width: 1.0;"/><line style="stroke: #A80036; stroke-width: 1.5;" x1="310.5" x2="310.5" y1="385.8703" y2="390.8703"/><line style="stroke: #A80036; stroke-width: 1.5;" x1="310.5" x2="116" y1="390.8703" y2="390.8703"/><line style="stroke: #A80036; stroke-width: 1.5;" x1="116" x2="116" y1="390.8703" y2="405.8703"/><polygon fill="#A80036" points="112,395.8703,116,405.8703,120,395.8703,116,399.8703" style="stroke: #A80036; stroke-width: 1.0;"/><line style="stroke: #A80036; stroke-width: 1.5;" x1="116" x2="116" y1="554.9027" y2="559.9027"/><line style="stroke: #A80036; stroke-width: 1.5;" x1="116" x2="310.5" y1="559.9027" y2="559.9027"/><line style="stroke: #A80036; stroke-width: 1.5;" x1="310.5" x2="310.5" y1="559.9027" y2="574.9027"/><polygon fill="#A80036" points="306.5,564.9027,310.5,574.9027,314.5,564.9027,310.5,568.9027" style="stroke: #A80036; stroke-width: 1.0;"/><line style="stroke: #A80036; stroke-width: 1.5;" x1="310.5" x2="310.5" y1="611.2468" y2="616.2468"/><line style="stroke: #A80036; stroke-width: 1.5;" x1="310.5" x2="116" y1="616.2468" y2="616.2468"/><line style="stroke: #A80036; stroke-width: 1.5;" x1="116" x2="116" y1="616.2468" y2="631.2468"/><polygon fill="#A80036" points="112,621.2468,116,631.2468,120,621.2468,116,625.2468" style="stroke: #A80036; stroke-width: 1.0;"/><line style="stroke: #A80036; stroke-width: 1.5;" x1="116" x2="116" y1="723.935" y2="728.935"/><line style="stroke: #A80036; stroke-width: 1.5;" x1="116" x2="468" y1="728.935" y2="728.935"/><line style="stroke: #A80036; stroke-width: 1.5;" x1="468" x2="468" y1="728.935" y2="743.935"/><polygon fill="#A80036" points="464,733.935,468,743.935,472,733.935,468,737.935" style="stroke: #A80036; stroke-width: 1.0;"/><line style="stroke: #A80036; stroke-width: 1.5;" x1="468" x2="468" y1="780.2791" y2="785.2791"/><line style="stroke: #A80036; stroke-width: 1.5;" x1="468" x2="116" y1="785.2791" y2="785.2791"/><line style="stroke: #A80036; stroke-width: 1.5;" x1="116" x2="116" y1="785.2791" y2="800.2791"/><polygon fill="#A80036" points="112,790.2791,116,800.2791,120,790.2791,116,794.2791" style="stroke: #A80036; stroke-width: 1.0;"/><text fill="#000000" font-family="sans-serif" font-size="18" lengthAdjust="spacingAndGlyphs" textLength="119" x="56" y="57.5317">HR-менеджер</text><text fill="#000000" font-family="sans-serif" font-size="18" lengthAdjust="spacingAndGlyphs" textLength="74" x="273" y="57.5317">Система</text><text fill="#000000" font-family="sans-serif" font-size="18" lengthAdjust="spacingAndGlyphs" textLength="80" x="427.5" y="57.5317">Керівник</text><line style="stroke: #000000; stroke-width: 2.0;" x1="10" x2="10" y1="38.2898" y2="934.9674"/><line style="stroke: #000000; stroke-width: 2.0;" x1="217" x2="217" y1="38.2898" y2="934.9674"/><line style="stroke: #000000; stroke-width: 2.0;" x1="404" x2="404" y1="38.2898" y2="934.9674"/><line style="stroke: #000000; stroke-width: 2.0;" x1="536" x2="536" y1="38.2898" y2="934.9674"/><!--MD5=[a8a28a9c8cd28b6f7fb71bc38bc03f9b]
@startuml hiring_process
skinparam backgroundColor #FEFEFE

title Процес прийняття працівника на роботу

|HR-менеджер|
start
:Створити картку працівника;
:Заповнити особисті дані;

:Заповнити військовий облік;

:Створити трудовий договір;

|Система|
:Автоматичне заповнення
полів з картки працівника;

|HR-менеджер|
:Натиснути "Новий наказ";
:Вибрати тип "Прийняття";
:Завантажити шаблон П-1;

|Система|
:QWeb рендеринг шаблону;

|HR-менеджер|
:Перевірити та відредагувати;
:Затвердити наказ;

|Керівник|
:Підписати наказ;

|HR-менеджер|
:Роздрукувати наказ;
:Ознайомити працівника;
stop

@enduml

PlantUML version 1.2020.02(Sun Mar 01 10:22:07 UTC 2020)
(GPL source distribution)
Java Runtime: OpenJDK Runtime Environment
JVM: OpenJDK 64-Bit Server VM
Java Version: 21.0.9+10-Ubuntu-124.04
Operating System: Linux
Default Encoding: UTF-8
Language: uk
Country: UA
--></g></svg>